<?xml version="1.0" encoding="UTF-8" standalone="no"?>
<!DOCTYPE svg PUBLIC "-//W3C//DTD SVG 1.1//EN"
 "http://www.w3.org/Graphics/SVG/1.1/DTD/svg11.dtd">
<!-- Generated by graphviz version 2.43.0 (0)
 -->
<!-- Title: trace Pages: 1 -->
<svg width="402pt" height="857pt"
 viewBox="0.00 0.00 402.00 857.00" xmlns="http://www.w3.org/2000/svg" xmlns:xlink="http://www.w3.org/1999/xlink">
<g id="graph0" class="graph" transform="scale(1 1) rotate(0) translate(4 853)">
<title>trace</title>
<polygon fill="white" stroke="transparent" points="-4,4 -4,-853 398,-853 398,4 -4,4"/>
<g id="clust1" class="cluster">
<title>cluster_AS6799</title>
<polygon fill="none" stroke="#608686" points="8,-291 8,-733 192,-733 192,-291 8,-291"/>
<text text-anchor="middle" x="100" y="-721" font-family="Times,serif" font-size="10.00">AS6799</text>
<text text-anchor="middle" x="100" y="-710" font-family="Times,serif" font-size="10.00">[OTEnet]</text>
</g>
<g id="clust2" class="cluster">
<title>cluster_AS5408</title>
<polygon fill="none" stroke="#60baba" points="14,-64 14,-219 386,-219 386,-64 14,-64"/>
<text text-anchor="middle" x="200" y="-207" font-family="Times,serif" font-size="10.00">AS5408</text>
<text text-anchor="middle" x="200" y="-196" font-family="Times,serif" font-size="10.00">[TEI&#45;SERRES]</text>
</g>
<!-- 79.128.36.240 -->
<g id="node1" class="node">
<title>79.128.36.240</title>
<ellipse fill="#608686" stroke="black" cx="100" cy="-461" rx="77.99" ry="18"/>
<text text-anchor="middle" x="100" y="-457.3" font-family="Times,serif" font-size="14.00">79.128.36.240</text>
</g>
<!-- 79.128.228.206 -->
<g id="node5" class="node">
<title>79.128.228.206</title>
<ellipse fill="#608686" stroke="black" cx="100" cy="-389" rx="83.69" ry="18"/>
<text text-anchor="middle" x="100" y="-385.3" font-family="Times,serif" font-size="14.00">79.128.228.206</text>
</g>
<!-- 79.128.36.240&#45;&gt;79.128.228.206 -->
<g id="edge6" class="edge">
<title>79.128.36.240&#45;&gt;79.128.228.206</title>
<path fill="none" stroke="#a07070" d="M100,-442.7C100,-434.98 100,-425.71 100,-417.11"/>
<polygon fill="#a07070" stroke="#a07070" points="103.5,-417.1 100,-407.1 96.5,-417.1 103.5,-417.1"/>
</g>
<!-- 79.128.232.25 -->
<g id="node2" class="node">
<title>79.128.232.25</title>
<ellipse fill="#608686" stroke="black" cx="100" cy="-605" rx="77.99" ry="18"/>
<text text-anchor="middle" x="100" y="-601.3" font-family="Times,serif" font-size="14.00">79.128.232.25</text>
</g>
<!-- 79.128.228.253 -->
<g id="node3" class="node">
<title>79.128.228.253</title>
<ellipse fill="#608686" stroke="black" cx="100" cy="-533" rx="83.69" ry="18"/>
<text text-anchor="middle" x="100" y="-529.3" font-family="Times,serif" font-size="14.00">79.128.228.253</text>
</g>
<!-- 79.128.232.25&#45;&gt;79.128.228.253 -->
<g id="edge4" class="edge">
<title>79.128.232.25&#45;&gt;79.128.228.253</title>
<path fill="none" stroke="#a07070" d="M100,-586.7C100,-578.98 100,-569.71 100,-561.11"/>
<polygon fill="#a07070" stroke="#a07070" points="103.5,-561.1 100,-551.1 96.5,-561.1 103.5,-561.1"/>
</g>
<!-- 79.128.228.253&#45;&gt;79.128.36.240 -->
<g id="edge5" class="edge">
<title>79.128.228.253&#45;&gt;79.128.36.240</title>
<path fill="none" stroke="#a07070" d="M100,-514.7C100,-506.98 100,-497.71 100,-489.11"/>
<polygon fill="#a07070" stroke="#a07070" points="103.5,-489.1 100,-479.1 96.5,-489.1 103.5,-489.1"/>
</g>
<!-- 79.128.234.186 -->
<g id="node4" class="node">
<title>79.128.234.186</title>
<ellipse fill="#608686" stroke="black" cx="100" cy="-677" rx="83.69" ry="18"/>
<text text-anchor="middle" x="100" y="-673.3" font-family="Times,serif" font-size="14.00">79.128.234.186</text>
</g>
<!-- 79.128.234.186&#45;&gt;79.128.232.25 -->
<g id="edge3" class="edge">
<title>79.128.234.186&#45;&gt;79.128.232.25</title>
<path fill="none" stroke="#a07070" d="M100,-658.7C100,-650.98 100,-641.71 100,-633.11"/>
<polygon fill="#a07070" stroke="#a07070" points="103.5,-633.1 100,-623.1 96.5,-633.1 103.5,-633.1"/>
</g>
<!-- 79.128.240.133 -->
<g id="node6" class="node">
<title>79.128.240.133</title>
<ellipse fill="#608686" stroke="black" cx="100" cy="-317" rx="83.69" ry="18"/>
<text text-anchor="middle" x="100" y="-313.3" font-family="Times,serif" font-size="14.00">79.128.240.133</text>
</g>
<!-- 79.128.228.206&#45;&gt;79.128.240.133 -->
<g id="edge7" class="edge">
<title>79.128.228.206&#45;&gt;79.128.240.133</title>
<path fill="none" stroke="#a07070" d="M100,-370.7C100,-362.98 100,-353.71 100,-345.11"/>
<polygon fill="#a07070" stroke="#a07070" points="103.5,-345.1 100,-335.1 96.5,-345.1 103.5,-345.1"/>
</g>
<!-- 176.126.38.31 -->
<g id="node12" class="node">
<title>176.126.38.31</title>
<ellipse fill="none" stroke="black" cx="100" cy="-245" rx="77.99" ry="18"/>
<text text-anchor="middle" x="100" y="-241.3" font-family="Times,serif" font-size="14.00">176.126.38.31</text>
</g>
<!-- 79.128.240.133&#45;&gt;176.126.38.31 -->
<g id="edge8" class="edge">
<title>79.128.240.133&#45;&gt;176.126.38.31</title>
<path fill="none" stroke="#a07070" d="M100,-298.7C100,-290.98 100,-281.71 100,-273.11"/>
<polygon fill="#a07070" stroke="#a07070" points="103.5,-273.1 100,-263.1 96.5,-273.1 103.5,-273.1"/>
</g>
<!-- 62.217.100.75 -->
<g id="node7" class="node">
<title>62.217.100.75</title>
<ellipse fill="#60baba" stroke="black" cx="100" cy="-162.5" rx="77.99" ry="18"/>
<text text-anchor="middle" x="100" y="-158.8" font-family="Times,serif" font-size="14.00">62.217.100.75</text>
</g>
<!-- 62.217.96.81 -->
<g id="node8" class="node">
<title>62.217.96.81</title>
<ellipse fill="#60baba" stroke="black" cx="136" cy="-90" rx="72.29" ry="18"/>
<text text-anchor="middle" x="136" y="-86.3" font-family="Times,serif" font-size="14.00">62.217.96.81</text>
</g>
<!-- 62.217.100.75&#45;&gt;62.217.96.81 -->
<g id="edge10" class="edge">
<title>62.217.100.75&#45;&gt;62.217.96.81</title>
<path fill="none" stroke="#a07070" d="M108.71,-144.43C112.92,-136.21 118.05,-126.16 122.72,-117.01"/>
<polygon fill="#a07070" stroke="#a07070" points="125.93,-118.41 127.37,-107.91 119.7,-115.22 125.93,-118.41"/>
</g>
<!-- unk0 -->
<g id="node13" class="node">
<title>unk0</title>
<ellipse fill="none" stroke="black" cx="221" cy="-18" rx="33.6" ry="18"/>
<text text-anchor="middle" x="221" y="-14.3" font-family="Times,serif" font-size="14.00">unk0</text>
</g>
<!-- 62.217.96.81&#45;&gt;unk0 -->
<g id="edge11" class="edge">
<title>62.217.96.81&#45;&gt;unk0</title>
<path fill="none" stroke="#a07070" d="M156.14,-72.41C167.9,-62.73 182.85,-50.41 195.44,-40.05"/>
<polygon fill="#a07070" stroke="#a07070" points="197.81,-42.63 203.31,-33.57 193.36,-37.23 197.81,-42.63"/>
</g>
<!-- 195.130.67.5 -->
<g id="node9" class="node">
<title>195.130.67.5</title>
<polygon fill="green" stroke="black" points="196,-144.5 196,-180.5 378,-180.5 378,-144.5 196,-144.5"/>
<text text-anchor="middle" x="251.5" y="-158.8" font-family="Times,serif" font-size="14.00">195.130.67.5</text>
<polyline fill="none" stroke="black" points="307,-144.5 307,-180.5 "/>
<text text-anchor="middle" x="342.5" y="-158.8" font-family="Times,serif" font-size="14.00">http SA</text>
</g>
<!-- 192.168.1.1 -->
<g id="node10" class="node">
<title>192.168.1.1</title>
<ellipse fill="none" stroke="black" cx="100" cy="-831" rx="66.09" ry="18"/>
<text text-anchor="middle" x="100" y="-827.3" font-family="Times,serif" font-size="14.00">192.168.1.1</text>
</g>
<!-- 10.106.108.100 -->
<g id="node11" class="node">
<title>10.106.108.100</title>
<ellipse fill="none" stroke="black" cx="100" cy="-759" rx="83.69" ry="18"/>
<text text-anchor="middle" x="100" y="-755.3" font-family="Times,serif" font-size="14.00">10.106.108.100</text>
</g>
<!-- 192.168.1.1&#45;&gt;10.106.108.100 -->
<g id="edge1" class="edge">
<title>192.168.1.1&#45;&gt;10.106.108.100</title>
<path fill="none" stroke="#a07070" d="M100,-812.7C100,-804.98 100,-795.71 100,-787.11"/>
<polygon fill="#a07070" stroke="#a07070" points="103.5,-787.1 100,-777.1 96.5,-787.1 103.5,-787.1"/>
</g>
<!-- 10.106.108.100&#45;&gt;79.128.234.186 -->
<g id="edge2" class="edge">
<title>10.106.108.100&#45;&gt;79.128.234.186</title>
<path fill="none" stroke="#a07070" d="M100,-740.64C100,-730.3 100,-716.94 100,-705.22"/>
<polygon fill="#a07070" stroke="#a07070" points="103.5,-705.05 100,-695.05 96.5,-705.05 103.5,-705.05"/>
</g>
<!-- 176.126.38.31&#45;&gt;62.217.100.75 -->
<g id="edge9" class="edge">
<title>176.126.38.31&#45;&gt;62.217.100.75</title>
<path fill="none" stroke="#a07070" d="M100,-226.93C100,-216.47 100,-202.84 100,-190.9"/>
<polygon fill="#a07070" stroke="#a07070" points="103.5,-190.55 100,-180.55 96.5,-190.55 103.5,-190.55"/>
</g>
<!-- unk0&#45;&gt;195.130.67.5 -->
<g id="edge12" class="edge">
<title>unk0&#45;&gt;195.130.67.5:T80</title>
<path fill="none" stroke="#a07070" d="M245.69,-30.46C279.11,-47.76 335.39,-83.91 342.3,-133.83"/>
<polygon fill="#a07070" stroke="#a07070" points="338.82,-134.26 343,-144 345.8,-133.78 338.82,-134.26"/>
</g>
</g>
</svg>
