<?xml version="1.0" encoding="UTF-8" standalone="no"?>
<!DOCTYPE svg PUBLIC "-//W3C//DTD SVG 1.1//EN"
 "http://www.w3.org/Graphics/SVG/1.1/DTD/svg11.dtd">
<!-- Generated by graphviz version 2.43.0 (0)
 -->
<!-- Title: trace Pages: 1 -->
<svg width="596pt" height="593pt"
 viewBox="0.00 0.00 595.68 593.00" xmlns="http://www.w3.org/2000/svg" xmlns:xlink="http://www.w3.org/1999/xlink">
<g id="graph0" class="graph" transform="scale(1 1) rotate(0) translate(4 589)">
<title>trace</title>
<polygon fill="white" stroke="transparent" points="-4,4 -4,-589 591.68,-589 591.68,4 -4,4"/>
<g id="clust1" class="cluster">
<title>cluster_AS6799</title>
<polygon fill="none" stroke="#608686" points="206,-243 206,-469 576,-469 576,-243 206,-243"/>
<text text-anchor="middle" x="391" y="-457" font-family="Times,serif" font-size="10.00">AS6799</text>
<text text-anchor="middle" x="391" y="-446" font-family="Times,serif" font-size="10.00">[OTEnet]</text>
</g>
<g id="clust2" class="cluster">
<title>cluster_AS5408</title>
<polygon fill="none" stroke="#60baba" points="8,-8 8,-235 206,-235 206,-8 8,-8"/>
<text text-anchor="middle" x="107" y="-223" font-family="Times,serif" font-size="10.00">AS5408</text>
<text text-anchor="middle" x="107" y="-212" font-family="Times,serif" font-size="10.00">[GRNET]</text>
</g>
<!-- 79.128.240.133 -->
<g id="node1" class="node">
<title>79.128.240.133</title>
<ellipse fill="#608686" stroke="black" cx="298" cy="-341" rx="83.69" ry="18"/>
<text text-anchor="middle" x="298" y="-337.3" font-family="Times,serif" font-size="14.00">79.128.240.133</text>
</g>
<!-- 176.126.38.31 -->
<g id="node12" class="node">
<title>176.126.38.31</title>
<ellipse fill="none" stroke="black" cx="120" cy="-269" rx="77.99" ry="18"/>
<text text-anchor="middle" x="120" y="-265.3" font-family="Times,serif" font-size="14.00">176.126.38.31</text>
</g>
<!-- 79.128.240.133&#45;&gt;176.126.38.31 -->
<g id="edge8" class="edge">
<title>79.128.240.133&#45;&gt;176.126.38.31</title>
<path fill="none" stroke="#a07070" d="M259.38,-324.81C232.28,-314.15 195.89,-299.84 167.08,-288.52"/>
<polygon fill="#a07070" stroke="#a07070" points="168.22,-285.2 157.63,-284.8 165.66,-291.72 168.22,-285.2"/>
</g>
<!-- 79.128.242.13 -->
<g id="node2" class="node">
<title>79.128.242.13</title>
<ellipse fill="#608686" stroke="black" cx="481" cy="-341" rx="77.99" ry="18"/>
<text text-anchor="middle" x="481" y="-337.3" font-family="Times,serif" font-size="14.00">79.128.242.13</text>
</g>
<!-- 79.128.228.207 -->
<g id="node5" class="node">
<title>79.128.228.207</title>
<ellipse fill="#608686" stroke="black" cx="478" cy="-269" rx="83.69" ry="18"/>
<text text-anchor="middle" x="478" y="-265.3" font-family="Times,serif" font-size="14.00">79.128.228.207</text>
</g>
<!-- 79.128.242.13&#45;&gt;79.128.228.207 -->
<g id="edge4" class="edge">
<title>79.128.242.13&#45;&gt;79.128.228.207</title>
<path fill="none" stroke="#a07070" d="M480.26,-322.7C479.93,-314.98 479.53,-305.71 479.16,-297.11"/>
<polygon fill="#a07070" stroke="#a07070" points="482.66,-296.95 478.73,-287.1 475.66,-297.25 482.66,-296.95"/>
</g>
<!-- 79.128.234.126 -->
<g id="node3" class="node">
<title>79.128.234.126</title>
<ellipse fill="#608686" stroke="black" cx="484" cy="-413" rx="83.69" ry="18"/>
<text text-anchor="middle" x="484" y="-409.3" font-family="Times,serif" font-size="14.00">79.128.234.126</text>
</g>
<!-- 79.128.234.126&#45;&gt;79.128.242.13 -->
<g id="edge3" class="edge">
<title>79.128.234.126&#45;&gt;79.128.242.13</title>
<path fill="none" stroke="#a07070" d="M483.26,-394.7C482.93,-386.98 482.53,-377.71 482.16,-369.11"/>
<polygon fill="#a07070" stroke="#a07070" points="485.66,-368.95 481.73,-359.1 478.66,-369.25 485.66,-368.95"/>
</g>
<!-- 79.128.228.206 -->
<g id="node4" class="node">
<title>79.128.228.206</title>
<ellipse fill="#608686" stroke="black" cx="298" cy="-413" rx="83.69" ry="18"/>
<text text-anchor="middle" x="298" y="-409.3" font-family="Times,serif" font-size="14.00">79.128.228.206</text>
</g>
<!-- 79.128.228.206&#45;&gt;79.128.240.133 -->
<g id="edge7" class="edge">
<title>79.128.228.206&#45;&gt;79.128.240.133</title>
<path fill="none" stroke="#a07070" d="M298,-394.7C298,-386.98 298,-377.71 298,-369.11"/>
<polygon fill="#a07070" stroke="#a07070" points="301.5,-369.1 298,-359.1 294.5,-369.1 301.5,-369.1"/>
</g>
<!-- unk0 -->
<g id="node11" class="node">
<title>unk0</title>
<ellipse fill="none" stroke="black" cx="534" cy="-179" rx="33.6" ry="18"/>
<text text-anchor="middle" x="534" y="-175.3" font-family="Times,serif" font-size="14.00">unk0</text>
</g>
<!-- 79.128.228.207&#45;&gt;unk0 -->
<g id="edge5" class="edge">
<title>79.128.228.207&#45;&gt;unk0</title>
<path fill="none" stroke="#a07070" d="M488.8,-251.03C497.11,-237.96 508.74,-219.7 518.12,-204.96"/>
<polygon fill="#a07070" stroke="#a07070" points="521.2,-206.64 523.61,-196.32 515.29,-202.88 521.2,-206.64"/>
</g>
<!-- 62.217.96.81 -->
<g id="node6" class="node">
<title>62.217.96.81</title>
<ellipse fill="#60baba" stroke="black" cx="123" cy="-107" rx="72.29" ry="18"/>
<text text-anchor="middle" x="123" y="-103.3" font-family="Times,serif" font-size="14.00">62.217.96.81</text>
</g>
<!-- 195.130.67.5 -->
<g id="node7" class="node">
<title>195.130.67.5</title>
<polygon fill="green" stroke="black" points="16,-16.5 16,-52.5 198,-52.5 198,-16.5 16,-16.5"/>
<text text-anchor="middle" x="71.5" y="-30.8" font-family="Times,serif" font-size="14.00">195.130.67.5</text>
<polyline fill="none" stroke="black" points="127,-16.5 127,-52.5 "/>
<text text-anchor="middle" x="162.5" y="-30.8" font-family="Times,serif" font-size="14.00">http SA</text>
</g>
<!-- 62.217.96.81&#45;&gt;195.130.67.5 -->
<g id="edge11" class="edge">
<title>62.217.96.81&#45;&gt;195.130.67.5:T80</title>
<path fill="none" stroke="#a07070" d="M143.94,-89.66C151.27,-82.47 158.44,-73.33 161.48,-63.11"/>
<polygon fill="#a07070" stroke="#a07070" points="164.97,-63.41 163,-53 158.05,-62.37 164.97,-63.41"/>
</g>
<!-- 62.217.100.75 -->
<g id="node8" class="node">
<title>62.217.100.75</title>
<ellipse fill="#60baba" stroke="black" cx="120" cy="-179" rx="77.99" ry="18"/>
<text text-anchor="middle" x="120" y="-175.3" font-family="Times,serif" font-size="14.00">62.217.100.75</text>
</g>
<!-- 62.217.100.75&#45;&gt;62.217.96.81 -->
<g id="edge10" class="edge">
<title>62.217.100.75&#45;&gt;62.217.96.81</title>
<path fill="none" stroke="#a07070" d="M120.74,-160.7C121.07,-152.98 121.47,-143.71 121.84,-135.11"/>
<polygon fill="#a07070" stroke="#a07070" points="125.34,-135.25 122.27,-125.1 118.34,-134.95 125.34,-135.25"/>
</g>
<!-- 192.168.1.1 -->
<g id="node9" class="node">
<title>192.168.1.1</title>
<ellipse fill="none" stroke="black" cx="484" cy="-567" rx="66.09" ry="18"/>
<text text-anchor="middle" x="484" y="-563.3" font-family="Times,serif" font-size="14.00">192.168.1.1</text>
</g>
<!-- 10.106.108.100 -->
<g id="node10" class="node">
<title>10.106.108.100</title>
<ellipse fill="none" stroke="black" cx="484" cy="-495" rx="83.69" ry="18"/>
<text text-anchor="middle" x="484" y="-491.3" font-family="Times,serif" font-size="14.00">10.106.108.100</text>
</g>
<!-- 192.168.1.1&#45;&gt;10.106.108.100 -->
<g id="edge1" class="edge">
<title>192.168.1.1&#45;&gt;10.106.108.100</title>
<path fill="none" stroke="#a07070" d="M484,-548.7C484,-540.98 484,-531.71 484,-523.11"/>
<polygon fill="#a07070" stroke="#a07070" points="487.5,-523.1 484,-513.1 480.5,-523.1 487.5,-523.1"/>
</g>
<!-- 10.106.108.100&#45;&gt;79.128.234.126 -->
<g id="edge2" class="edge">
<title>10.106.108.100&#45;&gt;79.128.234.126</title>
<path fill="none" stroke="#a07070" d="M484,-476.64C484,-466.3 484,-452.94 484,-441.22"/>
<polygon fill="#a07070" stroke="#a07070" points="487.5,-441.05 484,-431.05 480.5,-441.05 487.5,-441.05"/>
</g>
<!-- unk0&#45;&gt;79.128.228.206 -->
<g id="edge6" class="edge">
<title>unk0&#45;&gt;79.128.228.206</title>
<path fill="none" stroke="#a07070" d="M546.48,-195.76C555.25,-207.89 566.24,-225.5 571,-243 584.53,-292.77 601.59,-319.87 568,-359 566.35,-360.92 448.19,-383.6 368.74,-398.66"/>
<polygon fill="#a07070" stroke="#a07070" points="367.95,-395.25 358.78,-400.55 369.25,-402.12 367.95,-395.25"/>
</g>
<!-- 176.126.38.31&#45;&gt;62.217.100.75 -->
<g id="edge9" class="edge">
<title>176.126.38.31&#45;&gt;62.217.100.75</title>
<path fill="none" stroke="#a07070" d="M120,-250.61C120,-238.24 120,-221.37 120,-207.22"/>
<polygon fill="#a07070" stroke="#a07070" points="123.5,-207.05 120,-197.05 116.5,-207.05 123.5,-207.05"/>
</g>
</g>
</svg>
