<?xml version="1.0" encoding="UTF-8" standalone="no"?>
<!DOCTYPE svg PUBLIC "-//W3C//DTD SVG 1.1//EN"
 "http://www.w3.org/Graphics/SVG/1.1/DTD/svg11.dtd">
<!-- Generated by graphviz version 2.43.0 (0)
 -->
<!-- Title: trace Pages: 1 -->
<svg width="389pt" height="700pt"
 viewBox="0.00 0.00 389.00 700.00" xmlns="http://www.w3.org/2000/svg" xmlns:xlink="http://www.w3.org/1999/xlink">
<g id="graph0" class="graph" transform="scale(1 1) rotate(0) translate(4 696)">
<title>trace</title>
<polygon fill="white" stroke="transparent" points="-4,4 -4,-696 385,-696 385,4 -4,4"/>
<g id="clust1" class="cluster">
<title>cluster_AS25472</title>
<polygon fill="none" stroke="#608686" points="189,-422 189,-648 373,-648 373,-422 189,-422"/>
<text text-anchor="middle" x="281" y="-636" font-family="Times,serif" font-size="10.00">AS25472</text>
<text text-anchor="middle" x="281" y="-625" font-family="Times,serif" font-size="10.00">[Tellas S.A.]</text>
</g>
<g id="clust2" class="cluster">
<title>cluster_AS6762</title>
<polygon fill="none" stroke="#60baba" points="195,-260 195,-414 367,-414 367,-260 195,-260"/>
<text text-anchor="middle" x="281" y="-402" font-family="Times,serif" font-size="10.00">AS6762</text>
<text text-anchor="middle" x="281" y="-391" font-family="Times,serif" font-size="10.00">[SEA&#45;BONE]</text>
</g>
<g id="clust3" class="cluster">
<title>cluster_AS3356</title>
<polygon fill="none" stroke="#60ffff" points="74,-170 74,-252 349,-252 349,-170 74,-170"/>
<text text-anchor="middle" x="211.5" y="-240" font-family="Times,serif" font-size="10.00">AS3356</text>
<text text-anchor="middle" x="211.5" y="-229" font-family="Times,serif" font-size="10.00">[Proxy&#45;registered route object]</text>
</g>
<g id="clust4" class="cluster">
<title>cluster_AS22773</title>
<polygon fill="none" stroke="#868660" points="8,-8 8,-162 276,-162 276,-8 8,-8"/>
<text text-anchor="middle" x="142" y="-150" font-family="Times,serif" font-size="10.00">AS22773</text>
<text text-anchor="middle" x="142" y="-139" font-family="Times,serif" font-size="10.00">[DC CBS TRANSIT]</text>
</g>
<!-- 62.169.255.58 -->
<g id="node1" class="node">
<title>62.169.255.58</title>
<ellipse fill="#608686" stroke="black" cx="281" cy="-592" rx="77.99" ry="18"/>
<text text-anchor="middle" x="281" y="-588.3" font-family="Times,serif" font-size="14.00">62.169.255.58</text>
</g>
<!-- 62.169.245.121 -->
<g id="node2" class="node">
<title>62.169.245.121</title>
<ellipse fill="#608686" stroke="black" cx="281" cy="-520" rx="83.69" ry="18"/>
<text text-anchor="middle" x="281" y="-516.3" font-family="Times,serif" font-size="14.00">62.169.245.121</text>
</g>
<!-- 62.169.255.58&#45;&gt;62.169.245.121 -->
<g id="edge2" class="edge">
<title>62.169.255.58&#45;&gt;62.169.245.121</title>
<path fill="none" stroke="#a07070" d="M281,-573.7C281,-565.98 281,-556.71 281,-548.11"/>
<polygon fill="#a07070" stroke="#a07070" points="284.5,-548.1 281,-538.1 277.5,-548.1 284.5,-548.1"/>
</g>
<!-- 62.169.252.230 -->
<g id="node3" class="node">
<title>62.169.252.230</title>
<ellipse fill="#608686" stroke="black" cx="281" cy="-448" rx="83.69" ry="18"/>
<text text-anchor="middle" x="281" y="-444.3" font-family="Times,serif" font-size="14.00">62.169.252.230</text>
</g>
<!-- 62.169.245.121&#45;&gt;62.169.252.230 -->
<g id="edge3" class="edge">
<title>62.169.245.121&#45;&gt;62.169.252.230</title>
<path fill="none" stroke="#a07070" d="M281,-501.7C281,-493.98 281,-484.71 281,-476.11"/>
<polygon fill="#a07070" stroke="#a07070" points="284.5,-476.1 281,-466.1 277.5,-476.1 284.5,-476.1"/>
</g>
<!-- 79.140.91.28 -->
<g id="node5" class="node">
<title>79.140.91.28</title>
<ellipse fill="#60baba" stroke="black" cx="281" cy="-358" rx="72.29" ry="18"/>
<text text-anchor="middle" x="281" y="-354.3" font-family="Times,serif" font-size="14.00">79.140.91.28</text>
</g>
<!-- 62.169.252.230&#45;&gt;79.140.91.28 -->
<g id="edge4" class="edge">
<title>62.169.252.230&#45;&gt;79.140.91.28</title>
<path fill="none" stroke="#a07070" d="M281,-429.61C281,-417.24 281,-400.37 281,-386.22"/>
<polygon fill="#a07070" stroke="#a07070" points="284.5,-386.05 281,-376.05 277.5,-386.05 284.5,-386.05"/>
</g>
<!-- 195.22.196.71 -->
<g id="node4" class="node">
<title>195.22.196.71</title>
<ellipse fill="#60baba" stroke="black" cx="281" cy="-286" rx="77.99" ry="18"/>
<text text-anchor="middle" x="281" y="-282.3" font-family="Times,serif" font-size="14.00">195.22.196.71</text>
</g>
<!-- 4.68.73.37 -->
<g id="node6" class="node">
<title>4.68.73.37</title>
<ellipse fill="#60ffff" stroke="black" cx="281" cy="-196" rx="60.39" ry="18"/>
<text text-anchor="middle" x="281" y="-192.3" font-family="Times,serif" font-size="14.00">4.68.73.37</text>
</g>
<!-- 195.22.196.71&#45;&gt;4.68.73.37 -->
<g id="edge6" class="edge">
<title>195.22.196.71&#45;&gt;4.68.73.37</title>
<path fill="none" stroke="#a07070" d="M281,-267.61C281,-255.24 281,-238.37 281,-224.22"/>
<polygon fill="#a07070" stroke="#a07070" points="284.5,-224.05 281,-214.05 277.5,-224.05 284.5,-224.05"/>
</g>
<!-- 79.140.91.28&#45;&gt;195.22.196.71 -->
<g id="edge5" class="edge">
<title>79.140.91.28&#45;&gt;195.22.196.71</title>
<path fill="none" stroke="#a07070" d="M281,-339.7C281,-331.98 281,-322.71 281,-314.11"/>
<polygon fill="#a07070" stroke="#a07070" points="284.5,-314.1 281,-304.1 277.5,-314.1 284.5,-314.1"/>
</g>
<!-- unk0 -->
<g id="node11" class="node">
<title>unk0</title>
<ellipse fill="none" stroke="black" cx="146" cy="-286" rx="33.6" ry="18"/>
<text text-anchor="middle" x="146" y="-282.3" font-family="Times,serif" font-size="14.00">unk0</text>
</g>
<!-- 4.68.73.37&#45;&gt;unk0 -->
<g id="edge7" class="edge">
<title>4.68.73.37&#45;&gt;unk0</title>
<path fill="none" stroke="#a07070" d="M263.31,-213.23C249.74,-225.09 230.14,-240.96 211,-252 202.71,-256.78 199.65,-255.89 191,-260 186.5,-262.14 181.82,-264.54 177.25,-266.98"/>
<polygon fill="#a07070" stroke="#a07070" points="175.23,-264.09 168.14,-271.97 178.59,-270.23 175.23,-264.09"/>
</g>
<!-- 4.53.58.90 -->
<g id="node7" class="node">
<title>4.53.58.90</title>
<ellipse fill="#60ffff" stroke="black" cx="142" cy="-196" rx="60.39" ry="18"/>
<text text-anchor="middle" x="142" y="-192.3" font-family="Times,serif" font-size="14.00">4.53.58.90</text>
</g>
<!-- 207.240.128.11 -->
<g id="node8" class="node">
<title>207.240.128.11</title>
<ellipse fill="#868660" stroke="black" cx="142" cy="-106" rx="83.69" ry="18"/>
<text text-anchor="middle" x="142" y="-102.3" font-family="Times,serif" font-size="14.00">207.240.128.11</text>
</g>
<!-- 4.53.58.90&#45;&gt;207.240.128.11 -->
<g id="edge9" class="edge">
<title>4.53.58.90&#45;&gt;207.240.128.11</title>
<path fill="none" stroke="#a07070" d="M142,-177.61C142,-165.24 142,-148.37 142,-134.22"/>
<polygon fill="#a07070" stroke="#a07070" points="145.5,-134.05 142,-124.05 138.5,-134.05 145.5,-134.05"/>
</g>
<!-- 171.73.198.210 80/tcp -->
<g id="node9" class="node">
<title>171.73.198.210 80/tcp</title>
<polygon fill="red" stroke="black" points="267.85,-26.54 267.85,-41.46 194.13,-52 89.87,-52 16.15,-41.46 16.15,-26.54 89.87,-16 194.13,-16 267.85,-26.54"/>
<text text-anchor="middle" x="142" y="-30.3" font-family="Times,serif" font-size="14.00">171.73.198.210 80/tcp</text>
</g>
<!-- 207.240.128.11&#45;&gt;171.73.198.210 80/tcp -->
<g id="edge10" class="edge">
<title>207.240.128.11&#45;&gt;171.73.198.210 80/tcp</title>
<path fill="none" stroke="#a07070" d="M142,-87.7C142,-79.98 142,-70.71 142,-62.11"/>
<polygon fill="#a07070" stroke="#a07070" points="145.5,-62.1 142,-52.1 138.5,-62.1 145.5,-62.1"/>
</g>
<!-- 192.168.1.254 -->
<g id="node10" class="node">
<title>192.168.1.254</title>
<ellipse fill="none" stroke="black" cx="281" cy="-674" rx="77.99" ry="18"/>
<text text-anchor="middle" x="281" y="-670.3" font-family="Times,serif" font-size="14.00">192.168.1.254</text>
</g>
<!-- 192.168.1.254&#45;&gt;62.169.255.58 -->
<g id="edge1" class="edge">
<title>192.168.1.254&#45;&gt;62.169.255.58</title>
<path fill="none" stroke="#a07070" d="M281,-655.64C281,-645.3 281,-631.94 281,-620.22"/>
<polygon fill="#a07070" stroke="#a07070" points="284.5,-620.05 281,-610.05 277.5,-620.05 284.5,-620.05"/>
</g>
<!-- unk0&#45;&gt;4.53.58.90 -->
<g id="edge8" class="edge">
<title>unk0&#45;&gt;4.53.58.90</title>
<path fill="none" stroke="#a07070" d="M145.21,-267.61C144.65,-255.24 143.88,-238.37 143.24,-224.22"/>
<polygon fill="#a07070" stroke="#a07070" points="146.73,-223.88 142.78,-214.05 139.73,-224.2 146.73,-223.88"/>
</g>
</g>
</svg>
